<svg width="48" height="48" viewBox="0 0 48 48" fill="none" xmlns="http://www.w3.org/2000/svg">
<rect width="48" height="48" rx="5" fill="white"/>
<path d="M11.1641 39.1172L15.9688 38.1562V12.2344H9.73438L8.53906 17.0391H5.39844V8.39062H31.5781V17.0391H28.4609L27.2422 12.2344H21.0078V38.1562L25.8125 39.1172V42H11.1641V39.1172Z" fill="black"/>
<path d="M34.1875 32.2852C35.2891 32.2852 36.1641 32.043 36.8125 31.5586C37.4609 31.0664 37.7852 30.3477 37.7852 29.4023C37.7852 28.6836 37.5039 28.1055 36.9414 27.668C36.3789 27.2227 35.6211 27 34.668 27C34.2383 27 33.8242 27.0352 33.4258 27.1055C33.0352 27.1758 32.7188 27.25 32.4766 27.3281C32.2344 27.3984 32.082 27.4492 32.0195 27.4805L31.7852 29.6367H29.8633L29.7461 25.9219C29.8867 25.875 30.207 25.7773 30.707 25.6289C31.2148 25.4727 31.8438 25.3242 32.5938 25.1836C33.3516 25.0352 34.082 24.9609 34.7852 24.9609C36.4961 24.9609 37.8438 25.3008 38.8281 25.9805C39.8125 26.6602 40.3047 27.7188 40.3047 29.1562C40.3047 30.1953 40.043 31.0625 39.5195 31.7578C39.0039 32.4453 38.2266 32.9141 37.1875 33.1641C38.2578 33.3906 39.1055 33.8594 39.7305 34.5703C40.3555 35.2812 40.668 36.0781 40.668 36.9609C40.668 38.2109 40.3516 39.2266 39.7188 40.0078C39.0859 40.7891 38.2891 41.3555 37.3281 41.707C36.3672 42.0586 35.3594 42.2344 34.3047 42.2344C33.375 42.2344 32.5469 42.1484 31.8203 41.9766C31.0938 41.7969 30.5039 41.6055 30.0508 41.4023C29.6055 41.1914 29.3828 41.0703 29.3828 41.0391L30.0977 39.1172C30.0977 39.1328 30.3281 39.2383 30.7891 39.4336C31.2578 39.6211 31.8125 39.7969 32.4531 39.9609C33.0938 40.1172 33.75 40.1953 34.4219 40.1953C35.5234 40.1953 36.3984 39.9258 37.0469 39.3867C37.6953 38.8398 38.0195 38.0703 38.0195 37.0781C38.0195 36.1797 37.6641 35.4766 36.9531 34.9688C36.2422 34.4531 35.2773 34.1953 34.0586 34.1953H32.2656V32.2852H34.1875Z" fill="black"/>
</svg>
