<svg width="48" height="48" viewBox="0 0 48 48" fill="none" xmlns="http://www.w3.org/2000/svg">
<rect width="48" height="48" rx="5" fill="#5E5CE5"/>
<path d="M11.1641 39.1172L15.9688 38.1562V12.2344H9.73438L8.53906 17.0391H5.39844V8.39062H31.5781V17.0391H28.4609L27.2422 12.2344H21.0078V38.1562L25.8125 39.1172V42H11.1641V39.1172Z" fill="white"/>
<path d="M29.7344 39.9609C31.8984 38.0234 33.5312 36.5078 34.6328 35.4141C35.7344 34.3203 36.5742 33.3164 37.1523 32.4023C37.7305 31.4883 38.0195 30.6094 38.0195 29.7656C38.0195 28.9141 37.7305 28.2422 37.1523 27.75C36.5742 27.25 35.7812 27 34.7734 27C34.3906 27 34.0117 27.0352 33.6367 27.1055C33.2617 27.1758 32.9531 27.25 32.7109 27.3281C32.4688 27.3984 32.3164 27.4492 32.2539 27.4805L32.0195 29.7656H30.0977L29.9805 25.9219C30.1211 25.875 30.4414 25.7773 30.9414 25.6289C31.4492 25.4727 32.0664 25.3242 32.793 25.1836C33.5195 25.0352 34.2188 24.9609 34.8906 24.9609C36.7812 24.9609 38.2148 25.3164 39.1914 26.0273C40.168 26.7383 40.6562 27.9023 40.6562 29.5195C40.6562 30.543 40.3906 31.5586 39.8594 32.5664C39.3359 33.5742 38.5352 34.6562 37.457 35.8125C36.3867 36.9609 34.9336 38.3438 33.0977 39.9609H41.1367V42H29.7344V39.9609Z" fill="white"/>
</svg>
